<mxfile host="app.diagrams.net" modified="2023-04-16T10:54:43.178Z" agent="Mozilla/5.0 (Windows NT 10.0; Win64; x64) AppleWebKit/537.36 (KHTML, like Gecko) Chrome/112.0.0.0 Safari/537.36" etag="HMn9jDrPblLQQIpOaVwT" version="21.1.7" type="device">
  <diagram name="第 1 页" id="0mOpu_4Q5Hf8L8Z_4cUU">
    <mxGraphModel dx="1050" dy="548" grid="1" gridSize="10" guides="1" tooltips="1" connect="1" arrows="1" fold="1" page="1" pageScale="1" pageWidth="827" pageHeight="1169" math="0" shadow="0">
      <root>
        <mxCell id="0" />
        <mxCell id="1" parent="0" />
        <mxCell id="Nxf0buAvJKbDJ65yP_Zq-1" value="组件 B&lt;br&gt;（需求带来的&lt;br&gt;经常变更）" style="rounded=0;whiteSpace=wrap;html=1;" vertex="1" parent="1">
          <mxGeometry x="230" y="270" width="120" height="60" as="geometry" />
        </mxCell>
        <mxCell id="Nxf0buAvJKbDJ65yP_Zq-3" style="edgeStyle=orthogonalEdgeStyle;rounded=0;orthogonalLoop=1;jettySize=auto;html=1;exitX=0.5;exitY=1;exitDx=0;exitDy=0;" edge="1" parent="1" source="Nxf0buAvJKbDJ65yP_Zq-2" target="Nxf0buAvJKbDJ65yP_Zq-1">
          <mxGeometry relative="1" as="geometry" />
        </mxCell>
        <mxCell id="Nxf0buAvJKbDJ65yP_Zq-2" value="组件 A" style="rounded=0;whiteSpace=wrap;html=1;" vertex="1" parent="1">
          <mxGeometry x="230" y="170" width="120" height="60" as="geometry" />
        </mxCell>
        <mxCell id="Nxf0buAvJKbDJ65yP_Zq-8" style="edgeStyle=orthogonalEdgeStyle;rounded=0;orthogonalLoop=1;jettySize=auto;html=1;exitX=0.5;exitY=1;exitDx=0;exitDy=0;entryX=0.25;entryY=0;entryDx=0;entryDy=0;" edge="1" parent="1" source="Nxf0buAvJKbDJ65yP_Zq-4" target="Nxf0buAvJKbDJ65yP_Zq-2">
          <mxGeometry relative="1" as="geometry" />
        </mxCell>
        <mxCell id="Nxf0buAvJKbDJ65yP_Zq-4" value="组件 1" style="rounded=0;whiteSpace=wrap;html=1;" vertex="1" parent="1">
          <mxGeometry x="90" y="50" width="120" height="60" as="geometry" />
        </mxCell>
        <mxCell id="Nxf0buAvJKbDJ65yP_Zq-9" style="edgeStyle=orthogonalEdgeStyle;rounded=0;orthogonalLoop=1;jettySize=auto;html=1;exitX=0.5;exitY=1;exitDx=0;exitDy=0;" edge="1" parent="1" source="Nxf0buAvJKbDJ65yP_Zq-5" target="Nxf0buAvJKbDJ65yP_Zq-2">
          <mxGeometry relative="1" as="geometry" />
        </mxCell>
        <mxCell id="Nxf0buAvJKbDJ65yP_Zq-5" value="组件 2" style="rounded=0;whiteSpace=wrap;html=1;" vertex="1" parent="1">
          <mxGeometry x="230" y="50" width="120" height="60" as="geometry" />
        </mxCell>
        <mxCell id="Nxf0buAvJKbDJ65yP_Zq-10" style="edgeStyle=orthogonalEdgeStyle;rounded=0;orthogonalLoop=1;jettySize=auto;html=1;exitX=0.5;exitY=1;exitDx=0;exitDy=0;entryX=0.75;entryY=0;entryDx=0;entryDy=0;" edge="1" parent="1" source="Nxf0buAvJKbDJ65yP_Zq-6" target="Nxf0buAvJKbDJ65yP_Zq-2">
          <mxGeometry relative="1" as="geometry" />
        </mxCell>
        <mxCell id="Nxf0buAvJKbDJ65yP_Zq-6" value="组件 3" style="rounded=0;whiteSpace=wrap;html=1;" vertex="1" parent="1">
          <mxGeometry x="380" y="50" width="120" height="60" as="geometry" />
        </mxCell>
        <mxCell id="Nxf0buAvJKbDJ65yP_Zq-23" style="edgeStyle=orthogonalEdgeStyle;rounded=0;orthogonalLoop=1;jettySize=auto;html=1;exitX=0.25;exitY=1;exitDx=0;exitDy=0;" edge="1" parent="1" source="Nxf0buAvJKbDJ65yP_Zq-11" target="Nxf0buAvJKbDJ65yP_Zq-20">
          <mxGeometry relative="1" as="geometry" />
        </mxCell>
        <mxCell id="Nxf0buAvJKbDJ65yP_Zq-24" style="edgeStyle=orthogonalEdgeStyle;rounded=0;orthogonalLoop=1;jettySize=auto;html=1;exitX=0.5;exitY=1;exitDx=0;exitDy=0;" edge="1" parent="1" source="Nxf0buAvJKbDJ65yP_Zq-11" target="Nxf0buAvJKbDJ65yP_Zq-21">
          <mxGeometry relative="1" as="geometry" />
        </mxCell>
        <mxCell id="Nxf0buAvJKbDJ65yP_Zq-25" style="edgeStyle=orthogonalEdgeStyle;rounded=0;orthogonalLoop=1;jettySize=auto;html=1;exitX=0.5;exitY=1;exitDx=0;exitDy=0;" edge="1" parent="1" source="Nxf0buAvJKbDJ65yP_Zq-11" target="Nxf0buAvJKbDJ65yP_Zq-22">
          <mxGeometry relative="1" as="geometry" />
        </mxCell>
        <mxCell id="Nxf0buAvJKbDJ65yP_Zq-27" style="edgeStyle=orthogonalEdgeStyle;rounded=0;orthogonalLoop=1;jettySize=auto;html=1;exitX=0.75;exitY=1;exitDx=0;exitDy=0;" edge="1" parent="1" source="Nxf0buAvJKbDJ65yP_Zq-11" target="Nxf0buAvJKbDJ65yP_Zq-26">
          <mxGeometry relative="1" as="geometry" />
        </mxCell>
        <mxCell id="Nxf0buAvJKbDJ65yP_Zq-11" value="组件 B&lt;br&gt;（依赖带来的变更）" style="rounded=0;whiteSpace=wrap;html=1;" vertex="1" parent="1">
          <mxGeometry x="720" y="270" width="120" height="60" as="geometry" />
        </mxCell>
        <mxCell id="Nxf0buAvJKbDJ65yP_Zq-12" style="edgeStyle=orthogonalEdgeStyle;rounded=0;orthogonalLoop=1;jettySize=auto;html=1;exitX=0.5;exitY=1;exitDx=0;exitDy=0;" edge="1" parent="1" source="Nxf0buAvJKbDJ65yP_Zq-13" target="Nxf0buAvJKbDJ65yP_Zq-11">
          <mxGeometry relative="1" as="geometry" />
        </mxCell>
        <mxCell id="Nxf0buAvJKbDJ65yP_Zq-13" value="组件 A" style="rounded=0;whiteSpace=wrap;html=1;" vertex="1" parent="1">
          <mxGeometry x="720" y="170" width="120" height="60" as="geometry" />
        </mxCell>
        <mxCell id="Nxf0buAvJKbDJ65yP_Zq-14" style="edgeStyle=orthogonalEdgeStyle;rounded=0;orthogonalLoop=1;jettySize=auto;html=1;exitX=0.5;exitY=1;exitDx=0;exitDy=0;entryX=0.25;entryY=0;entryDx=0;entryDy=0;" edge="1" parent="1" source="Nxf0buAvJKbDJ65yP_Zq-15" target="Nxf0buAvJKbDJ65yP_Zq-13">
          <mxGeometry relative="1" as="geometry" />
        </mxCell>
        <mxCell id="Nxf0buAvJKbDJ65yP_Zq-15" value="组件 1" style="rounded=0;whiteSpace=wrap;html=1;" vertex="1" parent="1">
          <mxGeometry x="580" y="50" width="120" height="60" as="geometry" />
        </mxCell>
        <mxCell id="Nxf0buAvJKbDJ65yP_Zq-16" style="edgeStyle=orthogonalEdgeStyle;rounded=0;orthogonalLoop=1;jettySize=auto;html=1;exitX=0.5;exitY=1;exitDx=0;exitDy=0;" edge="1" parent="1" source="Nxf0buAvJKbDJ65yP_Zq-17" target="Nxf0buAvJKbDJ65yP_Zq-13">
          <mxGeometry relative="1" as="geometry" />
        </mxCell>
        <mxCell id="Nxf0buAvJKbDJ65yP_Zq-17" value="组件 2" style="rounded=0;whiteSpace=wrap;html=1;" vertex="1" parent="1">
          <mxGeometry x="720" y="50" width="120" height="60" as="geometry" />
        </mxCell>
        <mxCell id="Nxf0buAvJKbDJ65yP_Zq-18" style="edgeStyle=orthogonalEdgeStyle;rounded=0;orthogonalLoop=1;jettySize=auto;html=1;exitX=0.5;exitY=1;exitDx=0;exitDy=0;entryX=0.75;entryY=0;entryDx=0;entryDy=0;" edge="1" parent="1" source="Nxf0buAvJKbDJ65yP_Zq-19" target="Nxf0buAvJKbDJ65yP_Zq-13">
          <mxGeometry relative="1" as="geometry" />
        </mxCell>
        <mxCell id="Nxf0buAvJKbDJ65yP_Zq-19" value="组件 3" style="rounded=0;whiteSpace=wrap;html=1;" vertex="1" parent="1">
          <mxGeometry x="870" y="50" width="120" height="60" as="geometry" />
        </mxCell>
        <mxCell id="Nxf0buAvJKbDJ65yP_Zq-20" value="组件 4" style="rounded=0;whiteSpace=wrap;html=1;" vertex="1" parent="1">
          <mxGeometry x="510" y="370" width="120" height="60" as="geometry" />
        </mxCell>
        <mxCell id="Nxf0buAvJKbDJ65yP_Zq-21" value="组件 5" style="rounded=0;whiteSpace=wrap;html=1;" vertex="1" parent="1">
          <mxGeometry x="650" y="400" width="120" height="60" as="geometry" />
        </mxCell>
        <mxCell id="Nxf0buAvJKbDJ65yP_Zq-22" value="组件 6" style="rounded=0;whiteSpace=wrap;html=1;" vertex="1" parent="1">
          <mxGeometry x="810" y="400" width="120" height="60" as="geometry" />
        </mxCell>
        <mxCell id="Nxf0buAvJKbDJ65yP_Zq-26" value="组件 1" style="rounded=0;whiteSpace=wrap;html=1;" vertex="1" parent="1">
          <mxGeometry x="950" y="370" width="120" height="60" as="geometry" />
        </mxCell>
      </root>
    </mxGraphModel>
  </diagram>
</mxfile>
